<?xml version="1.0" encoding="UTF-8"?> <svg xmlns="http://www.w3.org/2000/svg" id="Object" viewBox="0 0 403 164.26"><defs><clipPath id="clip-path"><path d="M-300.76 902h-1122V-220h1122Z" class="cls-1"></path></clipPath><clipPath id="clip-path-2"><path d="M-301.43-894.13h1122v1122h-1122z" class="cls-1"></path></clipPath><clipPath id="clip-path-3"><path d="M-301.43 227.87h1122v1122h-1122z" class="cls-1"></path></clipPath><style>.cls-1{fill:none}.cls-4{fill:#bdebe6}.cls-5{fill:#937ab9}.cls-9{fill:#ffbe4d}</style></defs><g style="clip-path:url(#clip-path)"><g style="clip-path:url(#clip-path-2)"><path d="M426.83 251.1 300.14 129.7l20.2-21.08L447 230Zm-114.9-121.65 114.64 109.86 8.66-9-114.64-109.9Z" class="cls-4"></path><path d="M-110.27 96.37a13 13 0 0 1 5.55-9 94.75 94.75 0 0 1 71.44-15 94.79 94.79 0 0 1 61.12 39.93A95.5 95.5 0 0 1 2.9 244.87a13 13 0 0 1-18.07-3.4 13 13 0 0 1 3.4-18.07 68.94 68.94 0 0 0 29-44.46 68.93 68.93 0 0 0-10.9-52 68.92 68.92 0 0 0-44.45-29 68.91 68.91 0 0 0-52 10.9 13 13 0 0 1-18.06-3.4 12.89 12.89 0 0 1-2.09-9.07Z" class="cls-5"></path><path d="M426.83 251.1 300.14 129.7l20.2-21.08L447 230Zm-114.9-121.65 114.64 109.86 8.66-9-114.64-109.9Z" class="cls-4"></path><circle cx="384.1" cy="70.71" r="21.15" style="fill:#e89c38" transform="rotate(-86.92 384.11 70.704)"></circle><path d="M-110.27 96.37a13 13 0 0 1 5.55-9 94.75 94.75 0 0 1 71.44-15 94.79 94.79 0 0 1 61.12 39.93A95.5 95.5 0 0 1 2.9 244.87a13 13 0 0 1-18.07-3.4 13 13 0 0 1 3.4-18.07 68.94 68.94 0 0 0 29-44.46 68.93 68.93 0 0 0-10.9-52 68.92 68.92 0 0 0-44.45-29 68.91 68.91 0 0 0-52 10.9 13 13 0 0 1-18.06-3.4 12.89 12.89 0 0 1-2.09-9.07Z" class="cls-5"></path><path d="M46.69-267.63h252.08v252.08H46.69z" style="fill:#fdbfbc" transform="rotate(-34.22 172.745 -141.623)"></path></g><g style="clip-path:url(#clip-path-3)"><path d="M426.83 251.1 300.14 129.7l20.2-21.08L447 230Zm-114.9-121.65 114.64 109.86 8.66-9-114.64-109.9Z" class="cls-4"></path><path d="M-110.27 96.37a13 13 0 0 1 5.55-9 94.75 94.75 0 0 1 71.44-15 94.79 94.79 0 0 1 61.12 39.93A95.5 95.5 0 0 1 2.9 244.87a13 13 0 0 1-18.07-3.4 13 13 0 0 1 3.4-18.07 68.94 68.94 0 0 0 29-44.46 68.93 68.93 0 0 0-10.9-52 68.92 68.92 0 0 0-44.45-29 68.91 68.91 0 0 0-52 10.9 13 13 0 0 1-18.06-3.4 12.89 12.89 0 0 1-2.09-9.07Z" class="cls-5"></path><path d="M426.83 251.1 300.14 129.7l20.2-21.08L447 230Zm-114.9-121.65 114.64 109.86 8.66-9-114.64-109.9Z" class="cls-4"></path><path d="M-110.27 96.37a13 13 0 0 1 5.55-9 94.75 94.75 0 0 1 71.44-15 94.79 94.79 0 0 1 61.12 39.93A95.5 95.5 0 0 1 2.9 244.87a13 13 0 0 1-18.07-3.4 13 13 0 0 1 3.4-18.07 68.94 68.94 0 0 0 29-44.46 68.93 68.93 0 0 0-10.9-52 68.92 68.92 0 0 0-44.45-29 68.91 68.91 0 0 0-52 10.9 13 13 0 0 1-18.06-3.4 12.89 12.89 0 0 1-2.09-9.07Z" class="cls-5"></path></g></g><path d="M278.1 54.75A60.92 60.92 0 0 1 232.27 34a40.9 40.9 0 0 0-61.55 0 60.89 60.89 0 0 1-45.82 20.75A60.92 60.92 0 0 1 79.07 34a40.9 40.9 0 0 0-61.55 0 10 10 0 1 1-15-13.17 60.89 60.89 0 0 1 91.64 0 40.92 40.92 0 0 0 30.78 14 40.89 40.89 0 0 0 30.77-14 60.9 60.9 0 0 1 91.65 0 40.92 40.92 0 0 0 30.78 14 40.89 40.89 0 0 0 30.77-14 60.9 60.9 0 0 1 91.65 0 10 10 0 1 1-15 13.17 40.9 40.9 0 0 0-61.55 0 60.89 60.89 0 0 1-45.91 20.75Z" class="cls-9"></path><path d="M278.1 109.51a60.92 60.92 0 0 1-45.83-20.79 40.88 40.88 0 0 0-61.55 0 60.9 60.9 0 0 1-91.65 0 40.88 40.88 0 0 0-61.55 0 10 10 0 1 1-15-13.18 60.89 60.89 0 0 1 91.64 0 40.88 40.88 0 0 0 61.55 0 60.9 60.9 0 0 1 91.65 0 40.88 40.88 0 0 0 61.55 0 60.9 60.9 0 0 1 91.65 0 10 10 0 0 1-15 13.18 40.88 40.88 0 0 0-61.55 0 60.89 60.89 0 0 1-45.91 20.79Z" class="cls-9"></path><path d="M278.1 164.26a60.92 60.92 0 0 1-45.83-20.79 40.9 40.9 0 0 0-61.55 0 60.9 60.9 0 0 1-91.65 0 40.9 40.9 0 0 0-61.55 0 10 10 0 1 1-15-13.17 60.89 60.89 0 0 1 91.64 0 40.9 40.9 0 0 0 61.55 0 60.9 60.9 0 0 1 91.65 0 40.9 40.9 0 0 0 61.55 0 60.9 60.9 0 0 1 91.65 0 10 10 0 1 1-15 13.17 40.9 40.9 0 0 0-61.55 0 60.89 60.89 0 0 1-45.91 20.79Z" class="cls-9"></path></svg> 